SPORT: Scrum V - Six Nations Special
On: BBC 2 Wales 
Date: Sunday 10th March 2013 
Time: 23:35 to 00:35 

Jason Mohammad presents Scrum V Six Nations Special with highlights of Scotland v Wales and a preview of Wales's final game of the championship against England. Studio guests include former Wales internationals Shane Williams and Robert Jones.



General
Complete name: 2013.03.10.Scrum.V.pdtv.x264.mp4
Format : MPEG-4
Format profile : Base Media
Codec ID : isom
File size: 573 MiB
Duration : 58mn 58s
Overall bit rate mode: Variable
Overall bit rate : 1 358 Kbps

Video
ID : 1
Format : AVC
Format/Info: Advanced Video Codec
Format profile : High@L3.1
Format settings, CABAC : Yes
Format settings, ReFrames: 5 frames
Codec ID : avc1
Codec ID/Info: Advanced Video Coding
Duration : 58mn 58s
Bit rate : 1 226 Kbps
Maximum bit rate : 4 083 Kbps
Width: 720 pixels
Height : 416 pixels
Display aspect ratio : 1.731
Frame rate mode: Constant
Frame rate : 25.000 fps
Color space: YUV
Chroma subsampling : 4:2:0
Bit depth: 8 bits
Scan type: Progressive
Bits/(Pixel*Frame) : 0.164
Stream size: 517 MiB (90%)
Writing library: x264 core 130 r2273 b3065e6

Audio
ID : 2
Format : AAC
Format/Info: Advanced Audio Codec
Format profile : LC
Codec ID : 40
Duration : 58mn 58s
Bit rate mode: Variable
Bit rate : 128 Kbps
Maximum bit rate : 143 Kbps
Channel(s) : 2 channels
Channel positions: Front: L R
Sampling rate: 48.0 KHz
Compression mode : Lossy
Delay relative to video: 80ms
Stream size: 54.0 MiB (9%)
Language : English